name rise44.9368peak50.754fall52.0217.mot
datacolumns 19
datarows 18
range 17.35327800000000 17.38160900000000
endheader
time	ground_force1_vx	ground_force1_vy	ground_force1_vz	ground_force1_px	ground_force1_py	ground_force1_pz	ground_force2_vx	ground_force2_vy	ground_force2_vz	ground_force2_px	ground_force2_py	ground_force2_pz	ground_torque1_x	ground_torque1_y	ground_torque1_z	ground_torque2_x	ground_torque2_y	ground_torque2_z	
17.35327800000000	4.92633700000000	706.71045300000003	52.75483700000000	0.20975200000000	0.00000000000000	0.16523200000000	0.00000000000000	0.00000000000000	0.00000000000000	0.00000000000000	0.00000000000000	0.00000000000000	0.00000000000000	20.92365400000000	0.00000000000000	0.00000000000000	0.00000000000000	0.00000000000000	
17.35493500000000	4.49595200000000	707.32691299999999	52.78948900000000	0.20898400000000	0.00000000000000	0.16521400000000	0.00000000000000	0.00000000000000	0.00000000000000	0.00000000000000	0.00000000000000	0.00000000000000	0.00000000000000	20.99753100000000	0.00000000000000	0.00000000000000	0.00000000000000	0.00000000000000	
17.35660700000000	4.05564900000000	707.96101699999997	52.82669500000000	0.20819500000000	0.00000000000000	0.16519800000000	0.00000000000000	0.00000000000000	0.00000000000000	0.00000000000000	0.00000000000000	0.00000000000000	0.00000000000000	21.07498900000000	0.00000000000000	0.00000000000000	0.00000000000000	0.00000000000000	
17.35828500000000	3.60505800000000	708.61151299999995	52.86627000000000	0.20738500000000	0.00000000000000	0.16518200000000	0.00000000000000	0.00000000000000	0.00000000000000	0.00000000000000	0.00000000000000	0.00000000000000	0.00000000000000	21.15598500000000	0.00000000000000	0.00000000000000	0.00000000000000	0.00000000000000	
17.35993700000000	3.14384100000000	709.27721099999997	52.90803900000000	0.20655100000000	0.00000000000000	0.16516700000000	0.00000000000000	0.00000000000000	0.00000000000000	0.00000000000000	0.00000000000000	0.00000000000000	0.00000000000000	21.24047800000000	0.00000000000000	0.00000000000000	0.00000000000000	0.00000000000000	
17.36160000000000	2.67169000000000	709.95698700000003	52.95183800000000	0.20569500000000	0.00000000000000	0.16515400000000	0.00000000000000	0.00000000000000	0.00000000000000	0.00000000000000	0.00000000000000	0.00000000000000	0.00000000000000	21.32843500000000	0.00000000000000	0.00000000000000	0.00000000000000	0.00000000000000	
17.36327700000000	2.18832900000000	710.64978900000006	52.99751600000000	0.20481400000000	0.00000000000000	0.16514200000000	0.00000000000000	0.00000000000000	0.00000000000000	0.00000000000000	0.00000000000000	0.00000000000000	0.00000000000000	21.41982700000000	0.00000000000000	0.00000000000000	0.00000000000000	0.00000000000000	
17.36493500000000	1.69351800000000	711.35463800000002	53.04493300000000	0.20390800000000	0.00000000000000	0.16513000000000	0.00000000000000	0.00000000000000	0.00000000000000	0.00000000000000	0.00000000000000	0.00000000000000	0.00000000000000	21.51462900000000	0.00000000000000	0.00000000000000	0.00000000000000	0.00000000000000	
17.36660800000000	1.18704600000000	712.07063200000005	53.09395900000000	0.20297600000000	0.00000000000000	0.16512000000000	0.00000000000000	0.00000000000000	0.00000000000000	0.00000000000000	0.00000000000000	0.00000000000000	0.00000000000000	21.61282400000000	0.00000000000000	0.00000000000000	0.00000000000000	0.00000000000000	
17.36826700000000	0.66874200000000	712.79694800000004	53.14448100000000	0.20202000000000	0.00000000000000	0.16511100000000	0.00000000000000	0.00000000000000	0.00000000000000	0.00000000000000	0.00000000000000	0.00000000000000	0.00000000000000	21.71439600000000	0.00000000000000	0.00000000000000	0.00000000000000	0.00000000000000	
17.36994100000000	0.13846600000000	713.53284499999995	53.19639600000000	0.20103700000000	0.00000000000000	0.16510400000000	0.00000000000000	0.00000000000000	0.00000000000000	0.00000000000000	0.00000000000000	0.00000000000000	0.00000000000000	21.81933700000000	0.00000000000000	0.00000000000000	0.00000000000000	0.00000000000000	
17.37160800000000	-0.40388300000000	714.27766399999996	53.24961700000000	0.20003000000000	0.00000000000000	0.16509700000000	0.00000000000000	0.00000000000000	0.00000000000000	0.00000000000000	0.00000000000000	0.00000000000000	0.00000000000000	21.92764200000000	0.00000000000000	0.00000000000000	0.00000000000000	0.00000000000000	
17.37327200000000	-0.95837100000000	715.03083200000003	53.30406600000000	0.19899700000000	0.00000000000000	0.16509100000000	0.00000000000000	0.00000000000000	0.00000000000000	0.00000000000000	0.00000000000000	0.00000000000000	0.00000000000000	22.03931000000000	0.00000000000000	0.00000000000000	0.00000000000000	0.00000000000000	
17.37494100000000	-1.52502800000000	715.79186200000004	53.35968500000000	0.19794000000000	0.00000000000000	0.16508700000000	0.00000000000000	0.00000000000000	0.00000000000000	0.00000000000000	0.00000000000000	0.00000000000000	0.00000000000000	22.15434200000000	0.00000000000000	0.00000000000000	0.00000000000000	0.00000000000000	
17.37660000000000	-2.10384800000000	716.56035299999996	53.41642400000000	0.19685900000000	0.00000000000000	0.16508400000000	0.00000000000000	0.00000000000000	0.00000000000000	0.00000000000000	0.00000000000000	0.00000000000000	0.00000000000000	22.27274400000000	0.00000000000000	0.00000000000000	0.00000000000000	0.00000000000000	
17.37828500000000	-2.69478900000000	717.33599200000003	53.47425000000000	0.19575500000000	0.00000000000000	0.16508100000000	0.00000000000000	0.00000000000000	0.00000000000000	0.00000000000000	0.00000000000000	0.00000000000000	0.00000000000000	22.39452500000000	0.00000000000000	0.00000000000000	0.00000000000000	0.00000000000000	
17.37994100000000	-3.29777400000000	718.11855200000002	53.53314300000000	0.19462900000000	0.00000000000000	0.16508000000000	0.00000000000000	0.00000000000000	0.00000000000000	0.00000000000000	0.00000000000000	0.00000000000000	0.00000000000000	22.51969300000000	0.00000000000000	0.00000000000000	0.00000000000000	0.00000000000000	
17.38160900000000	-3.91269000000000	718.90789299999994	53.59309700000000	0.19348300000000	0.00000000000000	0.16507900000000	0.00000000000000	0.00000000000000	0.00000000000000	0.00000000000000	0.00000000000000	0.00000000000000	0.00000000000000	22.64825900000000	0.00000000000000	0.00000000000000	0.00000000000000	0.00000000000000	
